<?xml version="1.0" standalone="no"?>
<!DOCTYPE svg PUBLIC "-//W3C//DTD SVG 20010904//EN"
 "http://www.w3.org/TR/2001/REC-SVG-20010904/DTD/svg10.dtd">
<svg version="1.0" xmlns="http://www.w3.org/2000/svg"
 width="400.000000pt" height="400.000000pt" viewBox="0 0 400.000000 400.000000"
 preserveAspectRatio="xMidYMid meet">
<g transform="translate(0.000000,400.000000) scale(0.100000,-0.100000)"
fill="#000000" stroke="none">
<path d="M0 2000 l0 -2000 2000 0 2000 0 0 2000 0 2000 -2000 0 -2000 0 0
-2000z m1795 699 c63 -32 95 -83 95 -155 0 -53 -28 -145 -99 -324 -50 -123
-102 -185 -193 -227 l-57 -26 38 -27 c39 -29 71 -89 71 -135 0 -34 -44 -152
-102 -272 -56 -118 -127 -200 -205 -236 -48 -22 -52 -22 -655 -25 -498 -2
-608 0 -608 11 0 13 138 360 341 861 l110 270 -70 149 c-39 82 -71 153 -71
158 0 6 248 9 678 7 l678 -3 49 -26z m2128 24 c4 -3 -28 -38 -70 -77 -43 -39
-173 -161 -288 -271 -116 -110 -271 -256 -344 -324 -72 -68 -130 -129 -128
-135 3 -7 93 -152 201 -323 108 -171 196 -314 196 -317 0 -3 -105 -6 -232 -6
l-233 0 -66 103 c-36 56 -117 186 -180 289 -94 155 -116 185 -126 172 -6 -8
-41 -93 -78 -187 -37 -95 -87 -217 -110 -272 l-42 -100 -216 -3 c-119 -1 -217
0 -217 4 0 3 120 303 266 667 147 364 277 687 289 717 l21 55 218 3 217 2 -7
-22 c-3 -13 -55 -144 -115 -292 -60 -148 -109 -272 -109 -275 0 -3 42 35 93
85 50 50 192 184 313 297 l222 207 243 3 c134 1 251 3 260 5 9 1 19 -1 22 -5z"/>
<path d="M450 2682 c0 -5 27 -67 61 -137 l61 -129 -35 -85 c-19 -48 -118 -294
-221 -548 -102 -254 -186 -464 -186 -468 0 -3 262 -4 583 -3 l582 3 47 27 c70
42 126 112 180 226 106 226 109 273 25 346 -62 53 -59 67 20 106 28 14 71 42
96 62 40 34 50 51 105 190 91 230 100 283 62 346 -42 68 -24 67 -737 70 -372
2 -643 -1 -643 -6z m955 -247 c59 -29 70 -88 31 -171 -47 -102 -96 -117 -375
-112 -246 4 -238 -3 -177 155 24 62 49 119 56 128 19 22 417 22 465 0z m-215
-531 c49 -20 75 -62 66 -107 -4 -17 -21 -62 -38 -100 -50 -108 -59 -111 -349
-115 -278 -4 -275 -5 -244 81 54 152 92 232 115 244 40 20 398 18 450 -3z"/>
<path d="M946 2358 c-13 -29 -33 -79 -44 -110 l-22 -58 208 0 c183 0 212 3
250 20 47 21 81 78 82 137 0 58 -18 63 -248 63 l-203 0 -23 -52z"/>
<path d="M746 1858 c-12 -19 -96 -224 -96 -235 0 -2 98 -3 218 -3 187 0 222 2
252 18 39 19 72 71 91 145 12 44 12 49 -9 70 -22 21 -30 22 -232 25 -209 3
-209 3 -224 -20z"/>
<path d="M2319 1998 l-276 -683 175 -3 c126 -2 178 1 183 9 4 7 50 120 103
253 124 311 144 344 185 300 10 -10 76 -113 146 -229 71 -115 147 -238 169
-272 l41 -63 188 0 c148 0 187 3 181 13 -4 6 -88 142 -187 301 -154 247 -179
292 -171 312 5 12 68 78 139 146 411 388 625 592 625 595 0 1 -91 3 -203 3
l-203 0 -310 -290 c-200 -187 -316 -289 -330 -290 -55 -1 -52 16 64 305 l110
275 -177 0 -177 0 -275 -682z"/>
</g>
</svg>
